<svg xmlns="http://www.w3.org/2000/svg" width="77" height="68" viewBox="0 0 77 68">
  <defs/>
  <path fill="#81b3d2" d="M72.7 45.4H4.3A4.26 4.26 0 000 49.59V53a4.25 4.25 0 004.3 4.19h1v1a9.93 9.93 0 0010 9.78h46.41a9.93 9.93 0 0010-9.78v-1h1A4.25 4.25 0 0077 53v-3.41a4.26 4.26 0 00-4.3-4.19zm-4 12.82a6.92 6.92 0 01-7 6.82H15.29a6.92 6.92 0 01-7-6.82v-1H68.7zM74 53a1.27 1.27 0 01-1.27 1.24H4.3A1.27 1.27 0 013 53v-3.41a1.27 1.27 0 011.3-1.23h68.4a1.27 1.27 0 011.3 1.23zM16.34 37.33l5.53 3.94 5.54-3.94 5.54 3.94 5.54-3.94 5.53 3.94 5.54-3.94 5.54 3.94 5.54-3.94 5.55 3.94 6.44-4.57-1.79-2.4-4.65 3.31-5.55-3.94-5.54 3.94-5.54-3.94-5.54 3.94-5.53-3.94-5.54 3.94-5.54-3.94-5.54 3.94-5.53-3.94-5.54 3.94-4.64-3.31-1.79 2.39 6.43 4.58 5.54-3.94zM71.66 30.66c0-.6.06-2.58 0-3C71 12.3 56.42 0 38.5 0S6 12.3 5.3 27.7v3zM38.5 3C54.71 3 68 14 68.67 27.7H8.33C9 14 22.29 3 38.5 3z"/>
  <ellipse cx="38.5" cy="14.83" fill="#81b3d2" rx="2.02" ry="1.97"/>
  <ellipse cx="30.41" cy="9.94" fill="#81b3d2" rx="2.02" ry="1.97"/>
  <ellipse cx="46.59" cy="9.94" fill="#81b3d2" rx="2.02" ry="1.97"/>
</svg>
