<svg xmlns="http://www.w3.org/2000/svg" width="18" height="14" viewBox="0 0 18 14">
  <defs/>
  <path fill="#fff" fill-rule="evenodd" d="M11.61.15a3.53 3.53 0 013.79 1.09c.71-.24 1.41-.45 2.13-.66a2.12 2.12 0 01-.91 1.65A1.76 1.76 0 0018 1.78a2.81 2.81 0 01-1.66 1.88C16.1 10 13 14.12 5.66 14h-.47c-.43 0-4.41-.43-5.19-1.76a7.17 7.17 0 005-1.1c-1-.28-2.84-.44-3.15-2.75a2.36 2.36 0 001.26.11C1.81 7.7.4 7 .47 5a2.19 2.19 0 001.42.44C1.15 5.2-.19 2.29 1 .8c1.92 1.73 4 3.37 7.58 3.52A4.4 4.4 0 0111.61.15z"/>
</svg>
