<svg xmlns="http://www.w3.org/2000/svg" width="75" height="72" viewBox="0 0 75 72">
  <defs/>
  <path fill="#81b3d2" d="M29.62 65h16.07V41.21H29.62zm13.12-2.92H32.57v-18h10.17z"/>
  <path fill="#81b3d2" d="M72.92 39.25L75 37.18l-10-9.86V.47H51.18v13.1L37.5 0 0 37.18l2.09 2.07L10 31.46v37.62H6V72h64.13v-2.92h-5.08V31.46zM54.13 3.39h8v21l-8-7.9zm8 65.69H12.9V28.53L37.5 4.15l24.6 24.38z"/>
  <path fill="#81b3d2" d="M29.87 27.08a7.79 7.79 0 107.79-7.71 7.75 7.75 0 00-7.79 7.71zm7.79-4.95a5 5 0 11-5 4.95 5 5 0 015-4.95zM16.98 41.21h3.01v3.92h-3.01zM22.94 41.21h3.01v3.92h-3.01zM16.98 47.18h3.01v3.92h-3.01zM22.94 47.18h3.01v3.92h-3.01zM49.05 41.21h3.01v3.92h-3.01zM55.01 41.21h3.01v3.92h-3.01zM49.05 47.18h3.01v3.92h-3.01zM55.01 47.18h3.01v3.92h-3.01z"/>
</svg>
