<svg xmlns="http://www.w3.org/2000/svg" width="74.69" height="72.35" viewBox="0 0 74.69 72.35">
  <defs/>
  <g fill="#81b3d2">
    <path d="M29.5 65.35h16V41.41h-16zm13.07-2.94H32.44V44.35h10.13z"/>
    <path d="M72.62 39.44l2.07-2.08-9.9-9.91V.47H51v13.16L37.35 0 0 37.36l2.08 2.08 7.83-7.83v37.8H6v2.94h63.85v-2.94h-5.06v-37.8zm-18.71-36h7.94v21.1l-7.94-7.94zm7.94 66h-49V28.67l24.5-24.5 24.5 24.5z"/>
    <path d="M29.75 27.21a7.75 7.75 0 107.75-7.75 7.75 7.75 0 00-7.75 7.75zm7.75-5a5 5 0 11-5 5 5 5 0 015-4.97zM16.91 41.41h3v3.94h-3zM22.85 41.41h3v3.94h-3zM16.91 47.41h3v3.94h-3zM22.85 47.41h3v3.94h-3zM48.85 41.41h3v3.94h-3zM54.78 41.41h3v3.94h-3zM48.85 47.41h3v3.94h-3zM54.78 47.41h3v3.94h-3z"/>
  </g>
</svg>
