<svg xmlns="http://www.w3.org/2000/svg" width="64" height="75" viewBox="0 0 64 75">
  <defs/>
  <path fill="#81b3d2" d="M61.12 22.21h-24.8C50.14 15.4 51.25 11.1 50.74 8.7c-1.17-3.91-5.7-6.93-10-5.33-5.57 2.06-7.14 10.25-8.65 16.17C30.16 13.55 28.3 5.9 24 2a7.42 7.42 0 00-5.77-2c-4 .35-9.8 5.31-7.46 10.84 2.23 5.34 9.64 8.69 14.53 11.37H2.88A2.86 2.86 0 000 25v11.21A2.86 2.86 0 002.88 39h.27v36H61V39h.11A2.86 2.86 0 0064 36.21V25a2.86 2.86 0 00-2.88-2.79zM42.43 5.87c2.1-.31 5 1.28 5.26 3.16.39 2.72-3.41 5.19-5.09 6.34-2.53 1.72-4.93 2.61-7.29 4 .88-3.64 2.55-12.84 7.12-13.5zM19.54 15.7C17.31 14.24 13 11.33 13.09 8c.12-3.54 5.75-6.48 8.82-3.83 3.86 3.33 5.72 11 7.12 16.34a69 69 0 01-9.49-4.81zm6 56.37H6.14V39h19.37zm0-36H3.05V25.2h22.46zm10.16 36h-7.2V25.2h7.17zm22.36 0h-19.4V39H58zM61 36H38.66V25.2H61z"/>
</svg>
