<svg xmlns="http://www.w3.org/2000/svg" width="32" height="20"><path fill="currentColor" d="M29 0H3a3 3 0 00-3 3v14a3 3 0 003 3h26a3 3 0 003-3V3a3 3 0 00-3-3zM14.4 15.85a8.37 8.37 0 01-1.67.17 5.88 5.88 0 01-2-.33 4.24 4.24 0 01-1.65-1A5.18 5.18 0 018 12.79 8.19 8.19 0 017.55 10 7.62 7.62 0 018 7.15 5.12 5.12 0 019.25 5.3a4.42 4.42 0 011.68-1 5.66 5.66 0 011.85-.3 9.67 9.67 0 011.67.13 6.44 6.44 0 011.14.32l-.45 1.92a3.42 3.42 0 00-.9-.27A9 9 0 0013 6a2.72 2.72 0 00-2.2 1 4.57 4.57 0 00-.84 3 6.33 6.33 0 00.2 1.63 3.51 3.51 0 00.6 1.26 2.75 2.75 0 001 .81 3.1 3.1 0 001.4.29 4.63 4.63 0 001.26-.15 3.27 3.27 0 00.89-.38l.46 1.85a3.63 3.63 0 01-1.37.54zm8.7 0a8.4 8.4 0 01-1.68.17 5.86 5.86 0 01-2-.33 4.1 4.1 0 01-1.65-1 5.18 5.18 0 01-1.13-1.86 8.19 8.19 0 01-.39-2.83 7.42 7.42 0 01.47-2.85 5.15 5.15 0 011.22-1.86 4.53 4.53 0 011.68-1A5.7 5.7 0 0121.47 4a9 9 0 011.68.13 6.07 6.07 0 011.13.32l-.44 1.91a3.67 3.67 0 00-.9-.26 9 9 0 00-1.27-.1 2.74 2.74 0 00-2.21 1 4.63 4.63 0 00-.83 3 5.92 5.92 0 00.2 1.63 3.51 3.51 0 00.6 1.26 2.75 2.75 0 001 .81 3.1 3.1 0 001.4.29 4.5 4.5 0 001.25-.15 3.34 3.34 0 00.9-.38l.46 1.85a3.63 3.63 0 01-1.34.54z"/></svg>