<svg xmlns="http://www.w3.org/2000/svg" width="102" height="83" viewBox="0 0 102 83">
  <defs/>
  <path fill="#23a9e1" d="M1.06.7l49.69 57.66 49.48-57.31L1.06.7z"/>
  <path fill="#fff" d="M80.1 17.11l-15.24.09c6-6.85 8.73-6.12 15.24-.09zM38.79 22.41h26.77c-2-1.22-6.73-7-9.34-4.84-.21.18-7.53-8.74-12.34-4.44-4.19 3.75-6.14-.5-10.89 2.48-5.42 3.53 3.13 5.61 5.8 6.8z"/>
  <path fill="#491213" d="M51.09 0H0v22.2L50.75 83l.34-.42L102 22.89V0zm0 56.38l-.34.41-47-55h94.7z"/>
  <path fill="#491213" d="M50.75 56.79l.34-.41 27.66-31.91c-6.93.94-11.9 6-18.66 4.9-3.41-.56-3.51-2.48-4.49-4.4-.75-1.48-1.94-1.29-3.49-1.89s-2.29-1.72-5.18-1c-2.54.59-2.82 4.47-6 4.24-1.7-.12-1.82-2.46-4.26-5.47-6.33-7.48-12.2-6.45-16.3.47z"/>
  <path fill="#23a9e1" d="M46.71 70.07l4.04-6.42 4.01 6.42-4.01 6.44-4.04-6.44z"/>
  <path fill="#fff" d="M23.36 31.87a2.75 2.75 0 01.8 2.09c-.05.57-.93 1.53-.27 1.83L26.14 33c-.6-.15-5.38-5.78-5.46-6.4l-3.17 1.7c.17.66 1.3 0 1.86.05a2.93 2.93 0 012 1.14c-1.73 1.43-5.95 5-6.39 5-.23 0-1.09-.6-1.11-.06 0 .26.86 1 1 1.2l2.24 2.62c.62-.28-.11-.72.2-1.23s4.92-4.22 6.07-5.18zM18.07 25c.44-.09.62.43 1 0l-2.5-3c-.37-.43-.84-.9-.71 0 .09.62-6.13 5.6-6.51 5.75s-.76-.41-1.11.1l2.2 2.58a10.15 10.15 0 00.75.87c.34.33.2-.67.22-.58-.09-.51.53-.94.86-1.21a59.09 59.09 0 015.8-4.51zM9.27 24.07a3.24 3.24 0 01-4.22-2c-.55-1.82.61-3.71 2.07-4.75s3.6-.95 4.39.83a3.51 3.51 0 01-.09 2.47c-.17.5-.6 1 .05 1.28l2.59-3.25C13 18 12.54 17 11.75 16.07a5.87 5.87 0 00-3.49-2.26c-2.88-.4-5.59 2.53-5.81 5.18A5.61 5.61 0 003.7 23c.75 1 1.87 1.6 2.44 2.72a23.64 23.64 0 003.3-1.24 2 2 0 00-.17-.36zM48.69 60.05c-1.15-.76-4-4.64-4.58-5.28l-.33-.39a2.26 2.26 0 00-.25.19c-.17.14.14.57-.05.85-.8 1.23-5.78 4.93-6 5.11-.56.38-1.17-.16-1.49.31a45.54 45.54 0 003 3.54c.48.08.15-.81.21-1a30.94 30.94 0 013.56-3.17c.34-.28.69.42.89.71a1.71 1.71 0 01.3 1.55c-.12.37-.72.91-.25 1.16l2.62-3c.25-.29-.57 0-.47-.09a.93.93 0 01-1.07 0c-.09-.07-1.09-1.07-1-1.15a4.78 4.78 0 011.52-1.09c.87-.21 1.59 1.5 1.72 2.11a3.39 3.39 0 01-.08 1.73c-.12.38-.49.69 0 .92l2.14-2.89a.73.73 0 01-.41-.09c-.1-.08.16.04.02-.03zM38.44 56a5.24 5.24 0 00.77-7.26 5.45 5.45 0 00-7.83-1 5.19 5.19 0 00-.76 7.24A5.49 5.49 0 0038.44 56c1.16-1-.1 0 0 0zM38 51.27a7.41 7.41 0 01-3.74 3.62c-1.83.71-3.11-.81-2.37-2.52a7.39 7.39 0 013.75-3.62c1.86-.73 3.07.83 2.36 2.52-.41.88 0-.17 0 0zM32 41.53c.48.06.93.54 1.28 0L31 39c-.6.27 0 .55-.19 1s-2.57.78-3.19.88A15.7 15.7 0 0128.79 38c.55-.44.89.43 1.29-.14l-2.76-3.21c-.31-.36-.56-1-1-.68a7.82 7.82 0 01-.09 1.72c-.08.23-.94 3.59-1.93 4.42a21.71 21.71 0 01-2.71 2.07c-.54.18-.83-.59-1.22 0l2.49 2.92c.13.15.61.86.77.88.53.1.06-.88.12-1.07.15-.42 2.51-2.69 3.51-2.82a19.11 19.11 0 014.74-.56z"/>
  <path fill="#dc6243" d="M25.69 22.59c-4.05-.17-2.36-3.91.4-4.75s8.11 1.7 9.91 3.36c-2.79.84-6.4.72-9.47.86-.23-3.08-1-2-.8.53zM26.71 27.38c-2.05-1.56-1.4-5.2 1.77-4.09 4 2.06-.86 3.2-1.77 4.09zM35.23 35c-8.65-.07-2.81-13.16.14-12.37 3.38 1.06 3 12.47-.14 12.37zM41.35 30.71c-.84 2.48-2.37 2.94-2.2-.07.2-3.46 2.49-2.63 5-3.95 2-1.11 3.15-5.16 6.66-2.74 1.57 1.08 3.37.18 3.87 1.82 0-.09-4.56 10.18-2 10.18-5 0-2.78-5.85-.88-9.78-1.85.88-4.86 6.61-2.39 7.55-1.41 1.67-5.3 3.9-7.35 2.28-1.55-1.23-.69-3.28-.71-5.28zM45.47 40.2C42 41.24 37.32 39 43 37.89c3.5-.69 7.21.77 2.52 2.31.09-.04-.18.05-.05 0zM49.85 40.06c-.74-1.63.57-3.59 2.69-2.17 1.86 1.24-.85 3.07-2.69 2.17zM46.9 44.68c-2.42-.74-10.57-.56-5.24-2.73 1.65-.67 10.19.09 5.24 2.73zM50.12 44.33c0-.95-.51-2.65 1.36-1.92 2.24.86-1.36 2.62-1.36 1.92zM57.37 48c-1.45-1.21-2.9-1.28-4.25 0-1.8-3.25-8.34-2.16-11.4-2.62 1.64 4 14.91 4.73 15.65 2.62zM55.46 50.35c-3.16-.15-6.7-.56-9.68.08 1.87.46 6.42 1.78 2.18 2.89 1.52 2.14 4 2 5.6.12a16.89 16.89 0 01-1.56-1c1.68-.3 3.25-1.26 3.46-2zM59.06 46.52c-5.3-3.08-4-5.37.36-7.5 2.26-1.12 7.35-5.15 9.48-3.8l-9.84 11.3z"/>
  <path fill="#f49774" d="M55.29 39.33c-4.5-4.55 6.71-4.13 8.51-5.73 1.32.4 10.8-8.19 13.11-7.6-1.66 1.92-5.23 8-7.8 8-2 0-4-.29-5.49 1.09-2.23 2-5.92 3.06-8.33 4.25z"/>
  <path fill="#f4b1a4" d="M56.76 33.77c-2.46 1.3-4.79-3.86-.54-3.36 2.82.33 5.68-.24 8.38.22a8.78 8.78 0 01-7.84 3.14z"/>
  <path fill="#fff" d="M69.43 51.83a5 5 0 01.22 2c-.11.86-1 2.89-2.18 2.31a17.58 17.58 0 01-3.2-2.52c.8-.92 1.51-1.73 2.86-1.28.37.12.69 0 .3-.26s-3.12-1.94-3.27-1.78c-.27.31.53.86.22 1.46a7.14 7.14 0 01-.93 1.2c-.72-.6-1.93-1.23-1.06-2.22a3.66 3.66 0 012.1-1.33c.57-.11 1.85.38 2-.22l-3.26-1.55c.17.79-3.36 4.47-4.15 5.4-.11.14-.66.6-.66.79 0 .42.62.09.65.08.49-.18 6.84 5.05 7 5.41s-.22.56 0 .72c0 0 .23.21.25.18.4-.46 4.54-5.9 5.4-6.14-.8-1.2-1.6-2.4-2.38-3.61-.61.25-.04.93.09 1.36zM63.25 58.46c-2.08-1.33-5.61 1.26-6.14 1.51-1 .49-1.8-.53-1.26-1.48a2.82 2.82 0 012.32-1.28c.28 0 1.35.2 1.46 0s.23-.22 0-.34l-2.53-1.69c-.18 1-1.39 1.71-2.08 2.42a4.58 4.58 0 00-1.53 3.11 3 3 0 001.68 2.63 3.35 3.35 0 003.34-.5 19 19 0 011.93-1.16c1-.46 2.31-.06 2 1.26A3.6 3.6 0 0160 65.25a3.34 3.34 0 01-1.88-.09c-.44-.14-1-.73-1.23-.11l3.49 2.51A2.3 2.3 0 0161.46 66a12.05 12.05 0 002-2.1c1.16-1.66 1.54-4.01-.21-5.44zM63.25 58.46c.93.59-.59-.49 0 0zM100.06 19.4c-.73.72-8.45-2.31-9-2.73-.29-.12-.3-1.31-.71-.83s-.81 1-1.22 1.45l-1.26 1.5c-.26.31-.54.45 0 .71.84-.42 5.44 7.26 5 8.36-.73.37-6.94-5-7.1-5.35-.06-.15.27-1-.22-.94-.23 0-.74.89-.89 1.06l-.89 1.06c.33.48.52 0 1 0A13.27 13.27 0 0187 25.38c-.73 0-2.69.13-2.94.11-.91.11-.43-.66-1-.92l-2.35 2.73-1.33 1.59c0 .06 0 0 .05.11.33.27.11.17.57 0s6.58 4.87 6.8 5.12c.38.45-.15 1 .41 1.21L89 33.18c.09-.11.14-.1 0-.19-.43-.35-.48.21-1 .15s-4.41-3.33-5.91-4.56l8.22-.3c.31 0 1.15.89 1.07 1.21s-.46.55.06.78c.48-.57 1-1.14 1.46-1.71l.23-.28a1 1 0 00.21-.26l.17-.21c.42-.48 1.8-2 1.64-2.13-.46-.39-.69.46-1.3-.05a12.76 12.76 0 01-1.45-2.14c-.27-.44.61-.88 1-1.1.77-.48 3.25-1.17 3.49.34 0 .26-.27.54-.09.7s.21.24.27.16l3.32-3.93c-.1-.08-.21-.22-.33-.26zm-7.4 2.13h-.08.08a6.35 6.35 0 00-1 .75l-1.57-2.66 3.54 1.47a3.64 3.64 0 00-.97.44zM82.89 32.61a5.44 5.44 0 00-7.61.82 5.28 5.28 0 00.6 7.53 5.44 5.44 0 007.6-.84 5.23 5.23 0 00-.59-7.51zm-.29 6.54c-1.24 1.28-3.37.1-4.52-.72s-3.12-2.54-1.86-4.06c1.06-1.27 3.13-.22 4.2.48s3.42 2.57 2.29 4.17z"/>
  <path fill="#fff" d="M82.58 39.17l.08-.11a.7.7 0 00-.08.11zM76.27 41.63c.11.09.28.22-.06-.06a6 6 0 00-8.43 1.14l-3 3.53c.35.5.77-.12 1.28.17s6.26 5 6.36 5.31c.16.45-.26.54.14.86a41 41 0 005-6.12 4.24 4.24 0 00-1.29-4.83zM75 48.3c-.24.29 0 .05-.67.64-.3.29-6.46-4.62-6.21-4.88a4.39 4.39 0 013.59-1.28c2.15.55 5.18 3.22 3.29 5.52z"/>
</svg>
