<svg xmlns="http://www.w3.org/2000/svg" width="102" height="83" viewBox="0 0 102 83">
  <defs/>
  <path fill="#23a9e1" d="M0 0l50.75 58.36L102 0H0z"/>
  <path fill="#491213" d="M51.09 0H0v22.2L50.75 83l.34-.42L102 22.89V0zm0 56.38l-.34.41-47-55h94.7z"/>
  <path fill="#491213" d="M50.75 56.79l.34-.41 27.66-31.91c-6.93.94-11.9 6-18.66 4.9-3.41-.56-3.51-2.48-4.49-4.4-.75-1.48-1.94-1.29-3.49-1.89s-2.29-1.72-5.18-1c-2.54.59-2.82 4.47-6 4.24-1.69-.12-1.81-2.47-4.25-5.47-6.33-7.48-12.2-6.45-16.3.47z"/>
  <path fill="#fff" d="M23.36 31.87a2.75 2.75 0 01.8 2.09c-.06.57-.94 1.53-.27 1.83L26.14 33c-.6-.15-5.38-5.78-5.46-6.4l-3.17 1.7c.17.65 1.3 0 1.86.05a2.93 2.93 0 012 1.14c-1.73 1.43-5.95 4.95-6.39 5-.23 0-1.1-.6-1.11-.06 0 .26.86 1 1 1.2l2.24 2.62c.62-.28-.11-.72.2-1.23s4.92-4.22 6.07-5.18zM18.07 25c.44-.09.62.43 1 0l-2.5-3c-.37-.43-.84-.9-.71 0 .09.63-6.13 5.6-6.51 5.75s-.76-.41-1.11.1l2.19 2.58c.25.29.48.6.75.87s.21-.66.23-.58c-.09-.51.53-.94.86-1.21a59.09 59.09 0 015.8-4.51zM9.27 24.07a3.26 3.26 0 01-4.23-2c-.54-1.81.62-3.71 2.08-4.75s3.6-.95 4.39.83a3.45 3.45 0 01-.1 2.47c-.16.5-.6 1 .06 1.28.86-1.09 1.73-2.17 2.59-3.25C13 18 12.54 17 11.75 16.07a5.87 5.87 0 00-3.49-2.26c-2.88-.4-5.59 2.53-5.81 5.18A5.61 5.61 0 003.7 23c.75 1 1.87 1.6 2.44 2.72a23.64 23.64 0 003.3-1.24 2 2 0 00-.17-.36zM48.69 60.05c-1.15-.76-4-4.64-4.58-5.28-.11-.13-.23-.26-.33-.39a1.58 1.58 0 00-.25.19c-.17.14.14.57-.05.85-.8 1.23-5.78 4.92-6 5.1-.56.38-1.17-.15-1.49.31a42 42 0 003 3.54c.48.08.14-.8.21-1a30.85 30.85 0 013.56-3.18c.34-.27.69.42.89.72a1.71 1.71 0 01.3 1.55c-.12.36-.72.91-.25 1.16.62-.72 2.37-2.72 2.62-3s-.57 0-.47-.08a.93.93 0 01-1.07 0c-.09-.07-1.09-1.07-1-1.15a4.63 4.63 0 011.52-1.09c.87-.21 1.59 1.5 1.72 2.11a3.34 3.34 0 01-.08 1.72c-.12.39-.48.69 0 .92l2.14-2.88a.71.71 0 01-.41-.09c-.1-.08.16.04.02-.03zM38.44 56a5.22 5.22 0 00.77-7.25 5.45 5.45 0 00-7.83-1 5.19 5.19 0 00-.76 7.24A5.49 5.49 0 0038.44 56c1.16-1-.1 0 0 0zM38 51.27a7.45 7.45 0 01-3.74 3.62c-1.83.71-3.11-.82-2.37-2.52a7.39 7.39 0 013.75-3.62c1.85-.73 3.07.83 2.36 2.52-.41.88 0-.17 0 0zM32 41.53c.48.06.93.54 1.27 0L31 39c-.6.27 0 .55-.2 1s-2.56.78-3.18.88A15.7 15.7 0 0128.79 38c.54-.44.89.43 1.29-.14l-2.76-3.21c-.31-.36-.56-1-1-.67a7.74 7.74 0 01-.09 1.71c-.08.23-.94 3.59-1.93 4.42a22.22 22.22 0 01-2.71 2.07c-.54.18-.83-.59-1.23 0l2.5 2.92c.13.15.61.86.77.89.53.09.06-.89.12-1.08.15-.42 2.5-2.68 3.5-2.82a19.25 19.25 0 014.7-.52zM69.43 51.83a5 5 0 01.22 2c-.11.86-1 2.89-2.18 2.31a18 18 0 01-3.2-2.52c.8-.92 1.51-1.73 2.86-1.28.37.12.69 0 .3-.26s-3.12-1.94-3.27-1.78c-.27.31.53.86.22 1.46a7.14 7.14 0 01-.93 1.2c-.73-.6-1.93-1.23-1.06-2.23a3.7 3.7 0 012.1-1.32c.57-.11 1.85.38 2-.22l-3.27-1.55c.18.79-3.36 4.47-4.14 5.4-.11.14-.66.6-.67.79 0 .42.63.09.66.08.49-.18 6.84 5.05 7 5.41s-.22.57 0 .72c0 0 .23.21.25.18.4-.46 4.54-5.9 5.4-6.14-.8-1.2-1.6-2.4-2.38-3.61-.61.24-.04.93.09 1.36zM63.25 58.46c-2.08-1.33-5.62 1.26-6.15 1.51-1 .49-1.79-.53-1.25-1.48a2.82 2.82 0 012.32-1.28c.28 0 1.35.2 1.46 0s.23-.22 0-.35l-2.53-1.68c-.18 1-1.39 1.71-2.08 2.41a4.62 4.62 0 00-1.53 3.12 3 3 0 001.68 2.63 3.35 3.35 0 003.34-.5 19 19 0 011.93-1.16c1-.46 2.31-.06 2 1.25A3.59 3.59 0 0160 65.25a3.43 3.43 0 01-1.88-.09c-.44-.14-1-.73-1.23-.11l3.49 2.51A2.27 2.27 0 0161.46 66a12.05 12.05 0 002-2.1c1.16-1.67 1.54-4.01-.21-5.44zM63.25 58.46c.93.59-.59-.49 0 0zM100.06 19.4c-.73.72-8.45-2.32-9-2.73-.29-.12-.3-1.31-.71-.83s-.81 1-1.22 1.45l-1.26 1.5c-.26.3-.54.45 0 .71.84-.42 5.44 7.26 5 8.36-.73.37-6.94-5-7.1-5.35-.06-.15.27-1-.22-.94-.23 0-.74.89-.89 1.06l-.89 1.06c.33.48.52 0 1 0A13.68 13.68 0 0187 25.38c-.73 0-2.7.13-2.95.11-.9.11-.42-.66-1-.92l-2.34 2.73-1.33 1.59c0 .06 0 0 .05.11.33.27.11.17.57 0s6.58 4.87 6.8 5.12c.38.45-.16 1 .41 1.21L89 33.18c.1-.11.15-.1 0-.19-.43-.35-.47.21-1 .15s-4.41-3.33-5.92-4.56l8.23-.3c.3 0 1.14.89 1.07 1.2s-.47.56 0 .79c.49-.57 1-1.14 1.46-1.71l.23-.28a.67.67 0 00.21-.27l.17-.2c.43-.48 1.81-2 1.64-2.13-.46-.39-.68.46-1.3-.05a12.76 12.76 0 01-1.45-2.14c-.26-.44.61-.88 1-1.1.78-.48 3.26-1.17 3.49.34 0 .26-.27.54-.08.7s.2.23.27.16l3.31-3.93a1.14 1.14 0 00-.27-.26zm-7.4 2.13h-.08.08a5.89 5.89 0 00-1 .75l-1.57-2.66 3.54 1.47a3.64 3.64 0 00-.97.44zM82.88 32.61a5.45 5.45 0 00-7.61.82 5.29 5.29 0 00.61 7.57 5.44 5.44 0 007.6-.84 5.22 5.22 0 00-.6-7.55zm-.28 6.53c-1.24 1.28-3.37.1-4.52-.72s-3.12-2.54-1.86-4.06c1.06-1.27 3.13-.23 4.2.48S83.84 37.4 82.7 39c.06 0 .11-.11-.1.14z"/>
  <path fill="#fff" d="M82.88 32.61c1.18 1-.25-.21 0 0zM82.58 39.17l.08-.11a.7.7 0 00-.08.11zM76.27 41.63c.11.09.28.22-.06-.06a6 6 0 00-8.43 1.14l-3 3.53c.35.5.77-.12 1.28.17s6.26 5 6.35 5.3c.17.46-.25.54.15.87a41.53 41.53 0 005-6.12 4.24 4.24 0 00-1.29-4.83zM75 48.3c-.24.29 0 .05-.67.64-.31.29-6.46-4.62-6.21-4.88a4.43 4.43 0 013.59-1.29c2.15.56 5.18 3.23 3.29 5.53z"/>
  <path fill="#491213" d="M50.75 56.8l.34-.4 27.66-31.91c-6.93.94-11.9 6-18.66 4.9-3.41-.56-3.51-2.49-4.49-4.41-.75-1.47-1.94-1.28-3.5-1.88s-2.28-1.72-5.17-1.05c-2.54.58-2.82 4.46-6 4.24-1.69-.12-1.81-2.47-4.25-5.47-6.33-7.49-12.2-6.45-16.3.47z"/>
  <path fill="#23a9e1" d="M46.71 70.08l4.03-6.42 4.02 6.42-4.02 6.44-4.03-6.44z"/>
  <path fill="#fff" d="M23.36 31.89a2.75 2.75 0 01.8 2.09c-.06.57-.94 1.53-.27 1.82l2.25-2.8c-.6-.15-5.38-5.78-5.46-6.39l-3.17 1.71c.17.65 1.3 0 1.86 0a3 3 0 012 1.14c-1.73 1.44-5.95 5-6.39 5-.23 0-1.09-.59-1.11-.05 0 .26.86 1 1 1.19l2.24 2.63c.62-.28-.11-.73.2-1.23s4.92-4.22 6.07-5.18zM18.06 25c.45-.1.63.43 1-.06l-2.46-2.88c-.37-.44-.84-.9-.71 0 .09.62-6.13 5.6-6.51 5.75s-.76-.41-1.12.1c.74.85 1.47 1.71 2.2 2.57.25.29.48.61.75.88s.21-.67.23-.58c-.09-.51.53-.94.86-1.22A61.67 61.67 0 0118.06 25zM9.27 24.08a3.24 3.24 0 01-4.23-2c-.54-1.81.62-3.71 2.08-4.74s3.6-1 4.39.83a3.46 3.46 0 01-.1 2.47c-.16.5-.59 1 .06 1.27l2.59-3.24C13 18 12.54 17 11.75 16.08a5.85 5.85 0 00-3.49-2.25c-2.88-.41-5.59 2.52-5.81 5.17a5.58 5.58 0 001.25 4c.75 1 1.87 1.61 2.44 2.72a22.43 22.43 0 003.3-1.24 2 2 0 00-.17-.36zM48.69 60.06c-1.15-.75-4-4.63-4.58-5.27l-.33-.39-.25.19c-.17.14.13.56-.05.85-.8 1.23-5.78 4.92-6 5.1-.56.38-1.17-.15-1.49.31a42 42 0 003 3.54c.48.08.14-.8.21-1a30.85 30.85 0 013.56-3.18c.34-.27.69.42.89.72a1.71 1.71 0 01.3 1.55c-.12.36-.72.91-.25 1.16.62-.72 2.37-2.72 2.62-3s-.57 0-.47-.08a.93.93 0 01-1.07 0c-.09-.07-1.09-1.07-1-1.15a4.63 4.63 0 011.52-1.09c.87-.21 1.59 1.5 1.72 2.1a3.38 3.38 0 01-.08 1.73c-.12.39-.49.69 0 .92l2.14-2.88a.66.66 0 01-.41-.1c-.1-.09.16.04.02-.03zM38.44 56a5.22 5.22 0 00.77-7.25 5.45 5.45 0 00-7.83-1 5.19 5.19 0 00-.76 7.24 5.49 5.49 0 007.82 1c1.16-.99-.1.06 0 .01zM38 51.28a7.43 7.43 0 01-3.74 3.63c-1.83.71-3.11-.82-2.37-2.52a7.41 7.41 0 013.75-3.63c1.85-.72 3.07.84 2.36 2.52-.41.88 0-.16 0 0zM32 41.54c.48.06.93.55 1.27.05L31 39c-.6.27 0 .54-.2 1s-2.56.77-3.18.88A15.1 15.1 0 0128.79 38c.54-.44.88.42 1.29-.14l-2.76-3.22c-.31-.36-.56-1-1-.67a7.71 7.71 0 01-.09 1.71c-.08.24-.94 3.6-1.93 4.42a22.22 22.22 0 01-2.71 2.07c-.54.19-.83-.59-1.23 0 .84 1 1.67 1.94 2.5 2.92.13.14.61.85.77.88.53.09.06-.88.12-1.07.15-.43 2.5-2.69 3.5-2.83a20.28 20.28 0 014.7-.52c.36.04-.33-.05.05-.01z"/>
  <path fill="#dc6243" d="M25.69 22.61c-4.06-.17-2.36-3.91.4-4.76s8.11 1.7 9.87 3.36c-2.79.85-6.4.73-9.47.87-.23-3.09-1-2-.8.53zM26.71 27.4c-2.05-1.56-1.4-5.21 1.77-4.1 4 2.06-.86 3.2-1.77 4.1zM35.22 35c-8.64-.07-2.8-13.17.15-12.38 3.38 1.06 3 12.48-.15 12.38zM41.35 30.73c-.84 2.47-2.37 2.93-2.2-.07.2-3.46 2.49-2.63 5-4 2-1.1 3.15-5.15 6.66-2.73 1.57 1.08 3.37.18 3.87 1.81 0-.08-4.56 10.19-2 10.19-5 0-2.78-5.85-.88-9.78-1.85.87-4.86 6.61-2.39 7.55-1.41 1.71-5.3 3.94-7.35 2.3-1.56-1.23-.69-3.28-.71-5.28zM45.47 40.22C42 41.25 37.32 39 43 37.91c3.49-.7 7.21.77 2.52 2.31zM49.85 40.08c-.74-1.64.57-3.59 2.69-2.17 1.85 1.23-.85 3.07-2.69 2.17zM46.9 44.69c-2.42-.69-10.57-.55-5.24-2.69 1.65-.67 10.19.1 5.24 2.73zM50.12 44.35c0-1-.51-2.65 1.36-1.93 2.24.87-1.36 2.62-1.36 1.93zM57.36 48c-1.44-1.21-2.9-1.28-4.24 0-1.8-3.26-8.34-2.17-11.4-2.62 1.64 4 14.91 4.72 15.64 2.62zM55.46 50.36c-3.17-.14-6.7-.55-9.68.09 1.86.46 6.41 1.77 2.18 2.88 1.52 2.14 4 2 5.6.13A15.11 15.11 0 0152 52.41c1.68-.3 3.25-1.25 3.46-2zM59.06 46.53c-5.3-3.07-4-5.36.36-7.49 2.26-1.12 7.35-5.15 9.48-3.81l-9.84 11.3z"/>
  <path fill="#f49774" d="M55.29 39.34c-4.5-4.54 6.71-4.13 8.51-5.73 1.32.44 10.8-8.18 13.11-7.65-1.66 1.92-5.23 8-7.8 8-2 0-4-.28-5.49 1.1-2.23 2-5.92 3-8.33 4.24z"/>
  <path fill="#f4b1a4" d="M56.76 33.78c-2.46 1.31-4.79-3.86-.54-3.36 2.82.34 5.68-.23 8.37.23a8.74 8.74 0 01-7.83 3.13z"/>
  <path fill="#fff" d="M69.43 51.85a5 5 0 01.22 2c-.11.86-1 2.89-2.18 2.31a18.5 18.5 0 01-3.2-2.52c.8-.93 1.51-1.73 2.86-1.28.37.12.69 0 .3-.26s-3.12-1.94-3.27-1.78.53.86.22 1.46a7.14 7.14 0 01-.93 1.2c-.73-.6-1.93-1.24-1.06-2.23a3.65 3.65 0 012.1-1.32c.57-.12 1.85.38 2-.23l-3.27-1.54c.18.79-3.36 4.47-4.14 5.4-.11.13-.66.6-.67.78 0 .43.63.1.66.09.49-.18 6.84 5 7 5.4s-.22.57 0 .73c0 0 .23.21.25.18.4-.46 4.54-5.91 5.4-6.15-.8-1.2-1.6-2.4-2.38-3.6-.61.24-.04.92.09 1.36zM63.25 58.48c-2.08-1.33-5.61 1.26-6.15 1.51-1 .48-1.79-.54-1.25-1.49a2.78 2.78 0 012.32-1.27c.28 0 1.35.2 1.46 0s.23-.22 0-.35L57.1 55.2c-.18 1-1.39 1.71-2.08 2.41a4.62 4.62 0 00-1.53 3.12 3 3 0 001.68 2.63 3.38 3.38 0 003.34-.51 20.89 20.89 0 011.93-1.15c1-.46 2.31-.06 2 1.25A3.61 3.61 0 0160 65.27a3.43 3.43 0 01-1.88-.09c-.44-.14-1-.73-1.24-.11l3.5 2.5c.1-.75.52-1.07 1.09-1.54a11.77 11.77 0 002-2.11c1.15-1.67 1.53-4.01-.22-5.44z"/>
  <path fill="#fff" d="M63.25 58.48c.93.59-.59-.49 0 0zM100.06 19.41c-.73.73-8.45-2.31-9-2.73-.29-.11-.3-1.3-.71-.82l-1.22 1.45-1.27 1.49c-.26.31-.54.45 0 .71.84-.41 5.44 7.26 5 8.36-.73.38-6.94-5-7.11-5.35 0-.14.28-1-.21-.93-.23 0-.74.88-.89 1.06l-.89 1.06c.33.48.52 0 1 0A13.59 13.59 0 0187 25.39c-.73 0-2.7.13-2.95.12-.9.11-.42-.66-1-.92l-2.29 2.73-1.33 1.59c0 .06 0 0 .05.11.33.27.11.16.57 0s6.58 4.88 6.8 5.13c.38.45-.15 1 .41 1.21L89 33.2c.09-.11.14-.1 0-.2-.43-.35-.48.21-1 .16s-4.41-3.33-5.91-4.56l8.22-.3c.3 0 1.15.88 1.07 1.2s-.46.55.06.79c.48-.57 1-1.14 1.46-1.72l.23-.28a.84.84 0 00.21-.26l.17-.21c.42-.48 1.8-2 1.64-2.12-.47-.4-.69.46-1.31-.06a12.82 12.82 0 01-1.44-2.13c-.27-.45.61-.89 1-1.11.78-.47 3.26-1.17 3.5.35 0 .25-.27.54-.09.69s.21.24.27.16 2.37-2.81 3.32-3.92a1.7 1.7 0 00-.34-.27zm-7.4 2.14l-.08.05.08-.05a5.39 5.39 0 00-1 .75l-1.57-2.66 3.54 1.46a3.67 3.67 0 00-.97.45zM82.89 32.63a5.44 5.44 0 00-7.61.82 5.27 5.27 0 00.6 7.52 5.44 5.44 0 007.6-.83 5.23 5.23 0 00-.59-7.51zm-.29 6.53c-1.24 1.28-3.37.09-4.52-.72s-3.12-2.54-1.86-4.06c1.06-1.27 3.13-.23 4.2.48s3.42 2.56 2.28 4.16c.06-.02.11-.11-.1.14z"/>
  <path fill="#fff" d="M82.58 39.19a.44.44 0 00.08-.11.62.62 0 00-.08.11zM76.27 41.64c.11.1.28.22-.06 0a5.94 5.94 0 00-8.43 1.14l-3 3.52c.35.51.77-.11 1.28.18s6.26 5 6.36 5.3c.16.45-.26.54.14.87a41.53 41.53 0 005-6.12 4.26 4.26 0 00-1.29-4.89zM75 48.32c-.24.29 0 0-.67.64-.3.29-6.46-4.62-6.21-4.89a4.45 4.45 0 013.59-1.28c2.15.56 5.18 3.21 3.29 5.53z"/>
</svg>
