<svg xmlns="http://www.w3.org/2000/svg" width="186" height="96" viewBox="0 0 186 96">
  <defs/>
  <path fill="#81b3d3" d="M186 0H0l80.21 90.07a16.75 16.75 0 0025.58 0z"/>
  <path fill="#23a9e1" d="M43.09.72l49.35 58.09L141.6 1.07 43.09.72z"/>
  <path fill="#fff" d="M121.6 17.26l-15.13.08c6-6.9 8.66-6.16 15.13-.08zM80.57 22.59h26.59c-2-1.23-6.69-7-9.28-4.87-.21.18-7.48-8.81-12.25-4.48-4.17 3.78-6.1-.5-10.82 2.5-5.38 3.55 3.11 5.65 5.76 6.85z"/>
  <path fill="#491213" d="M92.78 0H42v22.38l50.45 61.25.33-.42 50.58-60.13V0zm0 56.8l-.33.4L45.73 1.79h94.1z"/>
  <path fill="#491213" d="M92.45 57.22l.33-.4 27.48-32.15c-6.88.95-11.82 6-18.54 4.93-3.38-.56-3.48-2.5-4.45-4.43-.74-1.49-1.93-1.3-3.47-1.9s-2.27-1.73-5.15-1.06c-2.52.59-2.8 4.5-5.93 4.27C81 26.36 80.92 24 78.49 21c-6.28-7.54-12.12-6.49-16.19.47z"/>
  <path fill="#23a9e1" d="M88.44 70.6l4-6.47 4 6.47-4 6.49-4-6.49z"/>
  <path fill="#491213" d="M124.14 20.17a60.34 60.34 0 00-9.43-7.61C109.45 9.1 101.31 5 92.44 4.93S75.53 9 70.36 12.46a56.52 56.52 0 00-9.18 7.62l-.71-.65a57.55 57.55 0 019.36-7.76C75.11 8.13 83.32 3.93 92.45 4s17.43 4.27 22.81 7.81a60.93 60.93 0 019.57 7.73zM48.2 1.19h.78v6.6h-.78zM53.93.93h.78v12.58h-.78z"/>
  <path fill="#491213" d="M60.16 1.01h.78v18.35h-.78zM66.55.93h.78v13.44h-.78zM73.17.82h.78v9.14h-.78zM80.05 1.07h.78v5.66h-.78zM86.38.91h.78V5h-.78z"/>
  <path fill="#491213" d="M60.208 1.999l.694-.357 6.422 12.485-.694.357zM66.676 2.06l.605-.493 6.644 8.17-.606.492zM73.294 2.104l.517-.584 5.945 5.263-.517.584zM80.304 2.159l.343-.701 6.298 3.077-.343.701zM86.595 2.162l.327-.708 5.646 2.61-.327.708zM135.85 1.25h.78v5.76h-.78zM130.12.72h.78v12.92h-.78zM123.9 1.25h.78v18.38h-.78zM117.5 1.03h.78v13.18h-.78zM110.88.98h.78v8.97h-.78zM104 .68h.78v6.05H104zM97.55 1.17h1.01V5h-1.01z"/>
  <path fill="#491213" d="M117.573 13.989l6.364-12.358.694.357-6.365 12.358zM110.95 9.621l6.604-8.06.604.494-6.605 8.06zM105.06 6.782l5.94-5.27.517.583-5.938 5.27zM97.898 4.54l6.299-3.076.342.701-6.299 3.076zM92.268 4.07l5.646-2.61.327.709-5.646 2.609z"/>
  <path fill="#fff" d="M65.24 32.12a2.79 2.79 0 01.8 2.11c-.06.58-.93 1.54-.27 1.84L68 33.25c-.6-.15-5.35-5.83-5.43-6.45l-3.14 1.73c.16.66 1.29 0 1.84 0a2.92 2.92 0 011.95 1.15c-1.72 1.44-5.91 5-6.35 5.07-.23 0-1.09-.6-1.1-.06 0 .26.85 1 1 1.21L59 38.58c.62-.28-.11-.73.21-1.24s4.88-4.25 6-5.22zM60 25.17c.45-.09.63.44 1-.05l-2.5-2.91c-.37-.44-.84-.91-.71 0 .09.63-6.09 5.64-6.47 5.8s-.75-.42-1.1.09l2.18 2.6c.25.29.48.61.75.88s.21-.67.22-.59c-.09-.51.53-.94.85-1.22a61.18 61.18 0 015.78-4.6zM51.24 24.26a3.2 3.2 0 01-4.19-2c-.54-1.83.61-3.74 2.06-4.78s3.58-1 4.36.83a3.56 3.56 0 01-.09 2.49c-.16.51-.6 1 0 1.29L56 18.78c-1-.63-1.52-1.67-2.3-2.58a5.76 5.76 0 00-3.47-2.27c-2.86-.41-5.55 2.54-5.77 5.22a5.7 5.7 0 001.24 4c.75 1 1.86 1.62 2.43 2.74a20.93 20.93 0 003.27-1.25 1.49 1.49 0 00-.17-.36zM90.41 60.51c-1.15-.77-4-4.67-4.56-5.32l-.33-.39a2 2 0 00-.24.19c-.18.15.13.57 0 .86-.79 1.24-5.74 5-6 5.14-.55.38-1.16-.16-1.48.32a45.62 45.62 0 003 3.56c.48.08.15-.81.22-1a30.81 30.81 0 013.53-3.2c.34-.28.69.42.89.72a1.75 1.75 0 01.24 1.61c-.11.37-.71.92-.25 1.17l2.61-3c.25-.29-.57 0-.47-.08a.92.92 0 01-1.06 0c-.09-.07-1.08-1.08-1-1.16A4.52 4.52 0 0187 58.72c.86-.21 1.57 1.51 1.7 2.12a3.46 3.46 0 01-.08 1.75c-.12.38-.48.69 0 .92l2.13-2.91a.68.68 0 01-.4-.09c-.07-.09.2.07.06 0zM80.22 56.4a5.46 5.46 0 10-7.77-1.07 5.41 5.41 0 007.77 1.07c1.15-.97-.1.07 0 0zm-.46-4.74A7.43 7.43 0 0176 55.31c-1.82.72-3.09-.82-2.36-2.54a7.45 7.45 0 013.73-3.65c1.84-.73 3 .85 2.35 2.54-.34.89.11-.16.04 0zM73.8 41.85c.47.06.92.55 1.26 0l-2.22-2.62c-.59.27 0 .54-.19 1s-2.55.78-3.17.89a15.66 15.66 0 011.16-2.82c.54-.44.88.43 1.27-.14l-2.73-3.24c-.31-.37-.56-1-1-.68a8.47 8.47 0 01-.06 1.76c-.09.23-.94 3.62-1.92 4.45a22.67 22.67 0 01-2.7 2.09c-.54.18-.82-.6-1.21 0l2.48 2.94c.12.15.6.86.76.89.52.09.06-.89.12-1.08.15-.43 2.49-2.71 3.48-2.85a19.44 19.44 0 014.67-.52z"/>
  <path fill="#dc6243" d="M67.56 22.77c-4-.16-2.34-3.93.39-4.78s8.05 1.71 9.81 3.38c-2.77.85-6.36.73-9.41.87-.23-3.11-1-2-.79.53zM68.57 27.6c-2-1.57-1.39-5.24 1.76-4.13 4 2.08-.86 3.23-1.76 4.13zM77 35.27c-8.59-.07-2.78-13.27.14-12.47 3.36 1.07 3 12.57-.14 12.47zM83.11 31c-.83 2.49-2.35 2.95-2.18-.07.19-3.49 2.47-2.65 4.91-4 2-1.11 3.13-5.19 6.62-2.75 1.54 1.06 3.34.15 3.84 1.82 0-.08-4.53 10.27-2 10.27-4.94 0-2.76-5.9-.87-9.86C91.56 27.26 88.58 33 91 34c-1.28 1.68-5.18 3.93-7.21 2.29C82.27 35 83.13 33 83.11 31zM87.2 40.52c-3.47 1-8.09-1.2-2.5-2.33 3.47-.7 7.16.77 2.5 2.33zM91.56 40.38c-.73-1.65.56-3.62 2.67-2.19 1.84 1.24-.85 3.09-2.67 2.19zM88.62 45c-2.4-.74-10.5-.55-5.2-2.75 1.64-.67 10.12.1 5.2 2.75zM91.83 44.67c0-1-.51-2.66 1.35-1.93 2.22.87-1.35 2.63-1.35 1.93zM99 48.32c-1.43-1.22-2.88-1.29-4.21 0-1.79-3.27-8.29-2.18-11.33-2.64 1.63 4 14.81 4.76 15.54 2.64zM97.12 50.74c-3.14-.15-6.64-.56-9.61.08 1.86.46 6.38 1.79 2.17 2.91 1.51 2.15 4 2 5.56.12a14.93 14.93 0 01-1.55-1.05c1.67-.3 3.23-1.26 3.43-2.06zM100.71 46.88c-5.27-3.1-3.94-5.41.35-7.56 2.25-1.12 7.3-5.18 9.42-3.83l-9.77 11.39z"/>
  <path fill="#f49774" d="M97 39.63c-4.47-4.58 6.66-4.16 8.45-5.77 1.31.44 10.73-8.24 13-7.7-1.65 1.93-5.2 8.1-7.75 8.1-2 0-3.94-.29-5.45 1.1-2.22 2-5.89 3.07-8.28 4.27z"/>
  <path fill="#f4b1a4" d="M98.42 34c-2.45 1.32-4.76-3.89-.54-3.38 2.81.34 5.65-.24 8.32.22A8.64 8.64 0 0198.42 34z"/>
  <path fill="#491213" d="M91.85 1.42h.93v3.3h-.93z"/>
  <path fill="#fff" d="M111 52.23a5 5 0 01.21 2c-.11.87-1 2.92-2.17 2.33a18.31 18.31 0 01-3.16-2.56c.8-.93 1.5-1.74 2.84-1.29.37.13.69 0 .3-.26s-3.1-1.95-3.25-1.79c-.27.31.53.87.22 1.47a7.21 7.21 0 01-.93 1.21c-.72-.6-1.91-1.25-1-2.24a3.65 3.65 0 012.09-1.34c.56-.11 1.83.39 2-.22l-3.3-1.54c.18.79-3.34 4.5-4.12 5.44-.11.14-.65.61-.66.79 0 .43.62.1.66.09.48-.18 6.79 5.08 7 5.44s-.22.57 0 .73c0 0 .23.22.25.18.39-.46 4.51-5.94 5.36-6.18-.8-1.21-1.59-2.42-2.36-3.64-.67.26-.1.94.02 1.38zM104.87 58.91c-2.07-1.34-5.58 1.27-6.11 1.52-1 .49-1.78-.54-1.24-1.49a2.75 2.75 0 012.3-1.29c.27 0 1.34.2 1.45 0s.23-.22 0-.34l-2.55-1.73c-.18 1-1.38 1.72-2.07 2.43a4.68 4.68 0 00-1.52 3.14 3 3 0 001.67 2.65 3.3 3.3 0 003.32-.51 18.69 18.69 0 011.91-1.16c1-.47 2.3-.07 2 1.26a3.59 3.59 0 01-2.4 2.33 3.28 3.28 0 01-1.86-.09c-.43-.14-1-.73-1.23-.11l3.46 2.55a2.31 2.31 0 011.08-1.55 11.41 11.41 0 002-2.12c1.15-1.69 1.52-4.05-.21-5.49z"/>
  <path fill="#fff" d="M104.87 58.91c.92.59-.59-.49 0 0zM141.43 19.56c-.73.72-8.39-2.33-9-2.75-.29-.12-.3-1.32-.7-.83s-.81 1-1.21 1.45l-1.26 1.51c-.26.31-.53.46 0 .72.83-.42 5.39 7.31 5 8.42-.73.37-6.89-5-7.06-5.39 0-.15.27-1-.21-.94-.23 0-.74.89-.89 1.07l-.88 1.06c.33.49.51 0 1 0a13.31 13.31 0 012.24 1.66c-.73 0-2.68.13-2.93.11-.9.12-.42-.66-1-.92-.75.92-1.51 1.83-2.27 2.75l-1.32 1.6v.11c.33.27.1.17.57 0s6.53 4.91 6.75 5.16c.38.45-.15 1 .41 1.22l1.79-2.18c.09-.1.14-.09 0-.19-.42-.35-.47.21-1 .15s-4.38-3.35-5.87-4.59l8.17-.3c.3 0 1.13.89 1.06 1.21s-.46.55.06.79c.47-.57 1-1.14 1.45-1.73l.22-.28a.63.63 0 00.21-.26L135 28c.43-.48 1.8-2 1.63-2.14-.46-.4-.68.46-1.29-.06a12.41 12.41 0 01-1.44-2.15c-.26-.45.61-.89 1-1.11.77-.48 3.24-1.18 3.47.34 0 .26-.27.55-.08.71s.2.24.27.16l3.28-4a1 1 0 00-.41-.19zm-7.35 2.14l-.08.06.08-.05a5.81 5.81 0 00-1 .75l-1.56-2.68 3.51 1.48a4.06 4.06 0 00-.95.44zM124.37 32.87a5.46 5.46 0 10.59 7.56 5.3 5.3 0 00-.59-7.56zm-.28 6.58c-1.23 1.28-3.35.09-4.49-.73s-3.1-2.56-1.85-4.09c1-1.28 3.11-.23 4.17.48s3.4 2.59 2.27 4.2c.05-.06.11-.12-.1.14z"/>
  <path fill="#fff" d="M124.37 32.87c1.17 1-.25-.21 0 0zM124.06 39.48l.08-.11zM117.8 42c.11.09.27.22-.06-.06a5.86 5.86 0 00-8.37 1.06l-3 3.56c.34.51.76-.12 1.26.17s6.23 5.08 6.32 5.34c.16.46-.25.55.14.87.18.15 4.52-5.22 4.92-6.16A4.31 4.31 0 00117.8 42zm-1.31 6.72c-.24.3 0 .06-.66.65-.31.29-6.42-4.65-6.18-4.92a4.36 4.36 0 013.57-1.29c2.18.51 5.19 3.19 3.27 5.51z"/>
</svg>
