<svg style="display:none" xmlns="http://www.w3.org/2000/svg">
  <symbol viewBox="0 0 27 34" id="icon-htmlacademy"><path fill="currentColor" d="M13.65 0h-.15L0 1.41V26l13.5 8L27 26V1.41zm11.42 12.09L13.52 5.32v-.1h-.09l-.08-.06v.11L1.93 12.09V3.14L13.5 1.93l11.57 1.21v9zM13.43 6.77L25 13.46l-4.51 2.64-7.11-4.21v1.41l5.92 3.5-.86.51-5-3v1.42L17.2 18l-.78.53-3-1.79v1.41l1.86 1.09-1.8 1.08L2 13.59zm-11.5 8.32l11.43 6.77v1l-8-4.71v1.45l8 4.78v1.07l-8-4.72v1.41l8 4.81h.05l8.16-4.86V17l3.42-2v10L13.5 31.77 1.93 24.91z"/></symbol>
  <symbol viewBox="0 0 22 20" id="icon-like"><path fill="currentColor" d="M12.38 3.65l-.63 2.92L11.22 9h8.68v2.06L17 18H8V8l4.37-4.36M13.2 0L6.6 6.6A1.68 1.68 0 006 8v10a2 2 0 002 2h9a2 2 0 001.8-1.2l3-7.1a1.7 1.7 0 00.1-.7V9h.1a2 2 0 00-2-2h-6.3l1-4.6v-.3a2.1 2.1 0 00-.4-1.1l-1.1-1zM4 8H0v12h4V8zm18 1z"/></symbol>
</svg>
