<svg style="display:none" xmlns="http://www.w3.org/2000/svg">
  <symbol viewBox="0 0 27 34" id="icon-htmlacademy"><path fill="currentColor" d="M13.65 0h-.15L0 1.41V26l13.5 8L27 26V1.41zm11.42 12.09L13.52 5.32v-.1h-.09l-.08-.06v.11L1.93 12.09V3.14L13.5 1.93l11.57 1.21v9zM13.43 6.77L25 13.46l-4.51 2.64-7.11-4.21v1.41l5.92 3.5-.86.51-5-3v1.42L17.2 18l-.78.53-3-1.79v1.41l1.86 1.09-1.8 1.08L2 13.59zm-11.5 8.32l11.43 6.77v1l-8-4.71v1.45l8 4.78v1.07l-8-4.72v1.41l8 4.81h.05l8.16-4.86V17l3.42-2v10L13.5 31.77 1.93 24.91z"/></symbol>
  <symbol viewBox="0 0 22 20" id="icon-like"><path fill="currentColor" d="M12.38 3.65l-.63 2.92L11.22 9h8.68v2.06L17 18H8V8l4.37-4.36M13.2 0L6.6 6.6A1.68 1.68 0 006 8v10a2 2 0 002 2h9a2 2 0 001.8-1.2l3-7.1a1.7 1.7 0 00.1-.7V9h.1a2 2 0 00-2-2h-6.3l1-4.6v-.3a2.1 2.1 0 00-.4-1.1l-1.1-1zM4 8H0v12h4V8zm18 1z"/></symbol>
  <symbol viewBox="0 0 16 20" id="icon-replay"><path fill="currentColor" d="M8 4V0L3 5l5 5V6a6 6 0 11-6 6H0a8 8 0 108-8z"/></symbol>
  <symbol viewBox="0 0 32 20" id="icon-subtitles"><path fill="currentColor" d="M29 0H3a3 3 0 00-3 3v14a3 3 0 003 3h26a3 3 0 003-3V3a3 3 0 00-3-3zM14.4 15.85a8.37 8.37 0 01-1.67.17 5.88 5.88 0 01-2-.33 4.24 4.24 0 01-1.65-1A5.18 5.18 0 018 12.79 8.19 8.19 0 017.55 10 7.62 7.62 0 018 7.15 5.12 5.12 0 019.25 5.3a4.42 4.42 0 011.68-1 5.66 5.66 0 011.85-.3 9.67 9.67 0 011.67.13 6.44 6.44 0 011.14.32l-.45 1.92a3.42 3.42 0 00-.9-.27A9 9 0 0013 6a2.72 2.72 0 00-2.2 1 4.57 4.57 0 00-.84 3 6.33 6.33 0 00.2 1.63 3.51 3.51 0 00.6 1.26 2.75 2.75 0 001 .81 3.1 3.1 0 001.4.29 4.63 4.63 0 001.26-.15 3.27 3.27 0 00.89-.38l.46 1.85a3.63 3.63 0 01-1.37.54zm8.7 0a8.4 8.4 0 01-1.68.17 5.86 5.86 0 01-2-.33 4.1 4.1 0 01-1.65-1 5.18 5.18 0 01-1.13-1.86 8.19 8.19 0 01-.39-2.83 7.42 7.42 0 01.47-2.85 5.15 5.15 0 011.22-1.86 4.53 4.53 0 011.68-1A5.7 5.7 0 0121.47 4a9 9 0 011.68.13 6.07 6.07 0 011.13.32l-.44 1.91a3.67 3.67 0 00-.9-.26 9 9 0 00-1.27-.1 2.74 2.74 0 00-2.21 1 4.63 4.63 0 00-.83 3 5.92 5.92 0 00.2 1.63 3.51 3.51 0 00.6 1.26 2.75 2.75 0 001 .81 3.1 3.1 0 001.4.29 4.5 4.5 0 001.25-.15 3.34 3.34 0 00.9-.38l.46 1.85a3.63 3.63 0 01-1.34.54z"/></symbol>
  <symbol viewBox="0 0 20 20" id="icon-fullscreen"><path fill="currentColor" d="M0 0v6h3V3h3V0H0zm3 14H0v6h6v-3H3v-3zM17 0h-3v3h3v3h3V0h-3zm0 17h-3v3h6v-6h-3v3z"/></symbol>
</svg>
