<svg xmlns="http://www.w3.org/2000/svg" width="460" height="80">
  <path d="M44.49 21.79a20.41 20.41 0 00-12.91-5c-3.57 0-8.34 2.09-8.34 6.26 0 4.38 5.26 6.07 8.64 7.17l5 1.49c10.42 3.08 18.47 8.36 18.47 20.5 0 7.46-1.79 15.12-7.75 20.2S33.87 79.5 26.32 79.5A46.1 46.1 0 010 70.94l8.34-15.72C13.21 59.5 19 63 25.62 63c4.57 0 9.44-2.29 9.44-7.56 0-5.47-7.65-7.36-11.82-8.56C11 43.38 3 40.2 3 25.67 3 10.44 13.8.5 28.8.5a51.05 51.05 0 0123.44 6.17zM91.88 19v12.54h22v16.52h-22V61H115v16.51H72.41v-75H115V19zM129.49 2.49h27.61c20.85 0 38 16.42 38 37.51s-17.28 37.51-38 37.51h-27.61v-75zM149 61h4.37c11.62 0 21.55-6.36 21.55-21 0-13.43-8.84-21-21.35-21H149zM287 38.61C287 62.89 269.65 80 245.61 80S204.2 62.89 204.2 38.61C204.2 15.92 224.06 0 245.61 0S287 15.92 287 38.61zm-62.57.1c0 12.93 9.53 22.38 21.15 22.38s21.16-9.45 21.16-22.38c0-10.35-9.53-19.8-21.16-19.8s-21.12 9.45-21.12 19.8zM297.4 2.49h19.46l35.66 45.87h.19V2.49h19.47v75h-19.47l-35.65-46h-.2v46H297.4v-75zM407.56 64.48l-5.16 13h-20.66l28.8-75h21.26l28.2 75h-20.76l-4.86-13zm13.61-38.81H421l-8 23.88h16.18z" fill="#fff"/>
</svg>
