<svg xmlns="http://www.w3.org/2000/svg" width="460" height="350">
  <path d="M165.51 70l-.2.22a6.48 6.48 0 01-4.53 2.22l2.83-4.86c1.81-3.14.14-6.11-2.68-6.11-2.31 0-4.09.92-5.82 3.92l-1.47 2.56-1.23 2.05-.15.18c-2.16 2.5-4.27 4.49-5.59 4.49-.66 0-1-.47-.35-1.65l6.43-11.19h2.44l.87-1.44h-2.48l2.82-4.9h-3l-2.82 4.9h-2.71l-.87 1.48h2.74l-6 10.42c-1.27 2.22-.38 4.26 2 4.26 1.74 0 3.67-1.31 5.52-3.08 0 3.81 5.3 4.56 8.54.46h.66a9.06 9.06 0 006.17-2.93 2.59 2.59 0 00-1.12-1zm-6.4.2H159a1.77 1.77 0 00-1.79 1.8 2 2 0 00.29 1v.06c-1.41 2.42-4.84 2-3.05-1.15l2.27-4 1.44-2.44c2.11-3.57 5-2.16 3.17 1zM207 70l-.2.22c-2.17 2.51-4.93 4.49-7 4.49-1.85 0-2.94-1.15-1.56-3.56l.29-.52c1.93.8 5.56.43 7.81-3.46l.43-.75c1.61-2.76.06-4.83-2.39-4.83a6.35 6.35 0 00-5.66 3.41l-2.91 5-.17.2c-2.16 2.51-4.26 4.49-5.59 4.49-.66 0-1-.46-.35-1.64l4.3-7.56c1.3-2.27.06-3.91-1.61-3.91-1.29 0-2.68.72-4.18 2.27l4.79-8.32h-3L181.66 70l-.17.19c-2.16 2.51-4.26 4.49-5.58 4.49-.67 0-1-.46-.35-1.64L182 61.86h2.45l.87-1.44h-2.48l2.82-4.89h-3l-2.83 4.9h-2.7l-.87 1.44H179l-6 10.42c-1.27 2.21-.38 4.26 2 4.26a6.66 6.66 0 003.82-1.63l-.77 1.34h3l4.55-7.92c4.61-5.78 6.65-5 5.36-2.82l-3.89 6.77c-1.27 2.22-.38 4.26 2 4.26 1.78 0 3.76-1.37 5.65-3.22.15 1.87 1.66 3.22 4.06 3.22 3.4 0 6.77-2.65 9.25-5.53A2.59 2.59 0 00207 70zm-5.71-4.21c1.73-3 4.79-2.47 3 .64l-.43.75c-1.44 2.44-3.37 2.39-4.5 2zM316.22 70l-.21.22a18.61 18.61 0 01-3.6 3.26c.95-2.85.75-7.23 2.6-11.06l-2.25-1.21c-1.24 1.7-3.95 5.62-6.66 8.78l-.2.22c-2.16 2.51-4.26 4.49-5.59 4.49-.66 0-1-.46-.34-1.64l6.39-11.19h-3L298 71.16c-2.27 2.07-4 3.23-4.61 3-.75-.32 0-1.44.38-2.07l5.84-10.19h-3L292 70l-.2.23a6.47 6.47 0 01-4.52 2.21l2.82-4.86c1.82-3.14.15-6.1-2.68-6.1-2.3 0-4.09.92-5.82 3.91l-1.47 2.56-1.26 2.05-.16.18c-2.16 2.5-4.92 4.49-7 4.49-1.84 0-2.94-1.15-1.55-3.57l.29-.52c1.93.81 5.56.43 7.8-3.46l.44-.74c1.61-2.77.06-4.84-2.4-4.84a6.33 6.33 0 00-5.64 3.46l-2.91 5-.17.2c-2.48 2.85-4.61 4.69-7 5.69l6.72-11.45h-1.76a3.17 3.17 0 00-3.14-2.88 6.68 6.68 0 00-5.11 3.44l-2.87 5-.2.23c-2.16 2.51-4.26 4.49-5.59 4.49-.66 0-1-.46-.35-1.64l3-5.24a3.06 3.06 0 00-.43-4.06l-1.67-2a1.16 1.16 0 01.17-1.73l-1.56-1.7c-1.7 1.53-1.84 3.23-.77 4.61l.26.34c-1.33 1.87-3.11 4.41-5.07 6.71l-.2.23a6.48 6.48 0 01-4.53 2.22l2.83-4.86c1.81-3.14.14-6.11-2.68-6.11-2.31 0-4.09.92-5.82 3.92l-1.47 2.56-1.24 2.03-.15.17c-2.48 2.85-4.61 4.69-7 5.7l6.72-11.45h-1.76a3.17 3.17 0 00-3.14-2.88 6.68 6.68 0 00-5.11 3.46l-4.2 7.26c-1.27 2.21-.38 4.26 2 4.26a5.7 5.7 0 002.85-1l-.79 1.48c-4 1.24-6.57 2.88-6.57 5.12 0 2.88 4.41 3.49 6.57-.2l2.27-3.94a18.38 18.38 0 007.22-4.53c0 3.83 5.29 4.58 8.54.48h.66a9.11 9.11 0 006.11-2.93c1.44-1.67 2.56-3.17 4.95-6.42l.41.49a1.47 1.47 0 01.17 1.7l-3.17 5.5c-1.27 2.21-.37 4.26 2.05 4.26 1.52 0 3.17-1 4.8-2.43a2.31 2.31 0 002.6 2.43 5.76 5.76 0 002.85-1l-.83 1.47c-4 1.24-6.57 2.88-6.57 5.12 0 2.88 4.41 3.49 6.57-.2l2.27-3.94a18.5 18.5 0 007.32-4.62c.13 1.88 1.65 3.24 4.06 3.24s4.86-1.37 6.95-3.2c-.12 3.92 5.27 4.72 8.55.58h.71a8.34 8.34 0 003.33-.86c-.81 2.08-.06 3.48 1.65 3.48s3.48-1.5 4.93-2.88a2.33 2.33 0 002.56 2.88c2.48 0 5.33-2.65 7.81-5.53 1.69-2 3.19-4.06 4.26-5.47-1.18 3.11-.55 8.7-3.4 8.7a1.67 1.67 0 01-1.41-1.1l-1.87 1a3.26 3.26 0 003.28 2.42 7.91 7.91 0 00.84-.06h.08c3.06-.4 6.08-2.82 8.33-5.44a1.86 1.86 0 00-1.17-1.12zm-43-4.21c1.73-3 4.78-2.47 3 .64l-.43.75c-1.44 2.44-3.37 2.39-4.49 2zM216 81.38c-.63 1.13-1.64 1-1.64.15s.72-1.67 3-2.56zm1.39-6.67c-.67 0-1-.46-.35-1.64l4.18-7.29c1.61-2.79 4.81-2.07 3.34.64l-2.28 4c-1.81 2.88-3.63 4.29-4.89 4.29zm18.4-4.52h-.14a1.77 1.77 0 00-1.76 1.81 2 2 0 00.29 1v.06c-1.41 2.42-4.84 2-3.05-1.15l2.27-4 1.44-2.44c2.1-3.57 5-2.16 3.17 1zm18.84 11.19c-.64 1.13-1.64 1-1.64.15s.72-1.67 3-2.56zm1.37-6.67c-.66 0-1-.46-.35-1.64l4.18-7.29c1.62-2.79 4.81-2.07 3.34.64l-2.27 4c-1.8 2.88-3.62 4.29-4.9 4.29zm29.56-4.52h-.15a1.77 1.77 0 00-1.75 1.81 2 2 0 00.29 1v.06c-1.41 2.42-4.84 2-3.05-1.15l2.27-4 1.44-2.44c2.11-3.57 5-2.16 3.17 1zM101.48 66.81h28.93v1.96h-28.93zM328.6 66.81h28.93v1.96H328.6z" fill="#766458"/>
  <path d="M163.27 0H171l-1.21 44.91h-14.55l-2-18.54-2 18.54h-14.6L135.54 0h7.65l.64 37.14h.83L149.44 0H157l4.91 37.14h.77zM195.14 37.14v7.77h-20.91V0h20.91v7.7h-13.26v10.84h10.58v7.7h-10.58v10.9zM216.49 37.14v7.77h-18.3V0h7.66v37.14zM232.74 28.35l7.71-1.79v13.6a4.8 4.8 0 01-4.71 4.75h-11.48a4.76 4.76 0 01-4.71-4.75V4.75A4.72 4.72 0 01224.26 0h11.48a4.77 4.77 0 014.71 4.75v9.11l-7.71 1.79V7.7h-5.55v29.44h5.55v-8.79zM261.23 0A4.77 4.77 0 01266 4.75v35.41a4.81 4.81 0 01-4.72 4.75h-11.53a4.76 4.76 0 01-4.75-4.75V4.75A4.72 4.72 0 01249.75 0zm-3 7.7h-5.54v29.44h5.54zM291 0h7.59v44.91h-7.65V22.84l-3.06 11.42h-7.46l-3-11.42v22.07h-7.65V0h7.59l6.82 21.68zM323.31 37.14v7.77H302.4V0h20.91v7.7h-13.26v10.84h10.58v7.7h-10.58v10.9z" fill="#81b3d3"/>
  <path d="M44.49 157.58a20.46 20.46 0 00-12.91-5c-3.57 0-8.34 2.09-8.34 6.25 0 4.37 5.26 6.06 8.64 7.15l5 1.49c10.42 3.07 18.47 8.33 18.47 20.44 0 7.44-1.79 15.09-7.75 20.15s-13.7 7-21.25 7A46.22 46.22 0 010 206.6l8.34-15.68c4.87 4.26 10.63 7.74 17.28 7.74 4.57 0 9.44-2.28 9.44-7.55 0-5.45-7.65-7.34-11.82-8.53C11 179.11 3 175.93 3 161.44c0-15.18 10.82-25.1 25.82-25.1a51.28 51.28 0 0123.44 6.15zM91.88 154.8v12.5h22v16.48h-22v12.89H115v16.48H72.41v-74.83H115v16.48zM129.49 138.32h27.61c20.85 0 38 16.38 38 37.42s-17.28 37.41-38 37.41h-27.61zM149 196.67h4.37c11.62 0 21.55-6.35 21.55-20.93 0-13.4-8.84-20.94-21.35-20.94H149zM287 174.35c0 24.21-17.38 41.28-41.42 41.28s-41.41-17.07-41.41-41.28c0-22.63 19.86-38.51 41.41-38.51S287 151.72 287 174.35zm-62.57.1c0 12.9 9.53 22.32 21.15 22.32s21.16-9.42 21.16-22.32c0-10.33-9.54-19.75-21.16-19.75s-21.12 9.43-21.12 19.75zM297.4 138.32h19.46l35.66 45.75h.19v-45.75h19.47v74.83h-19.47l-35.65-45.85h-.2v45.85H297.4zM407.56 200.15l-5.16 13h-20.66l28.8-74.83h21.26l28.2 74.83h-20.76l-4.86-13zm13.61-38.7H421l-8 23.81h16.18zM108.14 287.68c7.66-2.59 8.24-12.18.69-12.18-2.08 0-4.56 1.46-6.27 4.45l-10.22 17.64a14.61 14.61 0 01-1.46 2.15c-2.63-3.6-1.86-9 1.82-11.37l-1.53-1.93c-8 5.06-5.62 19.68 7.66 19.68 11.35.01 16.61-13.59 9.31-18.44zm-9.38 15.53a10.94 10.94 0 01-5.47-1.31 20.38 20.38 0 001.89-2.7l6.39-11.05 1 .11c8.93 1.86 5.43 14.95-3.81 14.95zm4.09-17.28l3.06-5.25c2.77-4.78 6.31-2 4.42 1.6-1.46 2.72-3.61 3.57-7.48 3.65z" fill="#fff"/>
  <path d="M140.23 299.94c-.62 2.24.58 4.07 3.15 4.07 1.53 0 3.43-1 5.26-2.48.18 1.46 1.35 2.48 3.28 2.48s4.24-1.39 6.4-3.36c-.42 2.05.54 3.36 2.41 3.36 2.08 0 4.41-1.89 6.24-3.64-.37 2 .84 3.64 3.25 3.64 3.13 0 6.75-3.35 9.88-7a.65.65 0 00-.1-.15c2.1-2.44 3.95-5 5.27-6.78-1.49 3.94-.69 11-4.3 11a2.12 2.12 0 01-1.79-1.39l-2.37 1.31a4.13 4.13 0 004.19 3c.36 0 .69 0 1.05-.07h.11c2.79-.37 5.56-2.06 8-4.22.06 2.49 2 4.33 5.15 4.33 4.3 0 8.57-3.35 11.71-7a3.27 3.27 0 00-1.42-1.31l-.26.29c-2.73 3.17-6.24 5.69-8.9 5.69-2.33 0-3.72-1.46-2-4.52l.37-.66c2.44 1 7 .55 9.88-4.37l.55-.95c2-3.5.07-6.13-3-6.13a8 8 0 00-7.11 4.38l-3.69 6.31h-.1l-.34.23a23.36 23.36 0 01-4.56 4.12c1.21-3.61.95-9.15 3.29-14l-2.85-1.53c-1.57 2.15-5 7.11-8.43 11.12a1.71 1.71 0 01.11.14l-.13.15c-2.74 3.17-5.4 5.69-7.08 5.69-.84 0-1.32-.59-.44-2.08l8.1-14.19h-3.8l-6.75 11.78c-2.88 2.63-5.1 4.08-5.83 3.76-.95-.41 0-1.83.47-2.63l7.41-12.91h-3.8l-6 10.45a1.4 1.4 0 00-.29-.16l-.25.29c-2.74 3.17-5.4 5.68-7.08 5.68-.84 0-1.31-.58-.44-2.07l6.13-10.72h-2.15a3.94 3.94 0 00-4-3.83c-2 0-4.89 1.6-6.49 4.37l-3.85 6.64a2.94 2.94 0 00-.58-.37l-.25.3c-2.74 3.17-6.24 5.68-8.9 5.68-2.34 0-3.73-1.46-2-4.52l3.91-6.78c2.19-3.75 6.06-3.13 3.79.8l-.55.95h3.11l.54-.95c2-3.5.08-6.12-3-6.12a8 8 0 00-7.12 4.37l-3.77 6.47a2.57 2.57 0 00-.35-.2l-.25.3c-2.74 3.17-6.24 5.68-8.91 5.68-2.33 0-3.72-1.46-2-4.52l.37-.65c2.44 1 7 .54 9.89-4.38l.54-.95c2-3.5.08-6.12-3-6.12a8 8 0 00-7.11 4.37l-4 6.82c-2.37 4.05-.33 7.77 4.16 7.77 3.34 0 6.66-2 9.45-4.64-.1 2.65 1.86 4.64 5.14 4.64 3.1-.02 6.18-1.75 8.83-4.08zm58.07-9.57c2.18-3.75 6-3.13 3.79.81l-.55.94c-1.82 3.1-4.27 3-5.69 2.52zm-54.22 9.23l5.29-9.23c2-3.53 6.09-2.62 4.23.81l-3 5.18c-2.3 3.6-4.56 5.32-6.13 5.32-.8 0-1.27-.59-.39-2.08zm-24.2-9.23c2.19-3.75 6.06-3.13 3.79.81l-.55.94c-1.82 3.1-4.27 3-5.69 2.52zM248.53 304c4.31 0 8.58-3.35 11.71-7a3.27 3.27 0 00-1.42-1.31l-.25.29c-2.74 3.17-6.24 5.69-8.91 5.69-2.33 0-3.72-1.46-2-4.52l.37-.66c2.44 1 7 .55 9.88-4.37l.55-.95c2.05-3.5.08-6.13-3-6.13a8 8 0 00-7.11 4.38l-3.7 6.33a.39.39 0 00-.11-.06l-.26.29c-2.73 3.17-5.39 5.69-7.07 5.69-.84 0-1.32-.59-.44-2.08l5.47-9.59c1.64-2.88.07-5-2-5-1.65 0-3.4.91-5.29 2.88l6.05-10.49h-3.79L226.47 296a2.86 2.86 0 00-.44-.25l-.25.29c-2.74 3.17-5.4 5.69-7.08 5.69-.84 0-1.31-.59-.44-2.08l8.14-14.19h3.1l1.1-1.82h-3.14l3.57-6.2h-3.79l-3.58 6.2h-3.43l-1.09 1.82h3.46l-7.6 13.16c-1.61 2.8-.48 5.39 2.59 5.39 1.88 0 3.94-1.22 6-3l-1.5 2.61h3.83l5.76-10c5.84-7.33 8.43-6.38 6.79-3.57l-4.93 8.56c-1.6 2.81-.47 5.4 2.6 5.4 2.3 0 4.86-1.81 7.3-4.22.05 2.44 1.99 4.21 5.09 4.21zm3.07-13.64c2.18-3.75 6-3.13 3.79.81l-.55.94c-1.82 3.1-4.27 3-5.69 2.52zM363.61 295.7l-.26.29c-2.73 3.17-5.39 5.69-7.07 5.69-.84 0-1.32-.58-.44-2.08l12.84-22.2h-3.79l-5.58 9.6a4.12 4.12 0 00-3.47-2c-2 0-4.89 1.61-6.5 4.38l-3.71 6.4a1.41 1.41 0 00-.24-.13l-.25.29c-2.74 3.17-5.4 5.69-7.08 5.69-.84 0-1.31-.59-.44-2.08l5.47-9.59c1.65-2.88.08-5-2-5-1.64 0-3.36.88-5.25 2.85l1.42-2.48h-3.8l-6.06 10.48a2.64 2.64 0 00-.36-.2l-.26.29c-2.73 3.17-5.4 5.69-7.08 5.69-.83 0-1.31-.59-.43-2.08l6.13-10.72h-2.2a3.94 3.94 0 00-4-3.83c-2.05 0-4.89 1.6-6.5 4.37l-3.67 6.33-.2.24c-2.74 3.17-5.4 5.68-7.08 5.68-.84 0-1.31-.58-.44-2.07l3.8-6.64c1.31-2.3.69-3.65-.55-5.14l-2.12-2.55a1.48 1.48 0 01.22-2.19l-2-2.15c-2.15 1.93-2.33 4.08-1 5.83l.33.44c-1.67 2.37-3.94 5.58-6.42 8.49l.26.33c-3.13 3.59-5.78 5.91-8.77 7.18L290 295h-3.8l-.4.66c-2 3.54-4.31 6.05-7.26 6.05-2.59 0-3.06-2.58-.8-6.45l1.06-1.86a13.36 13.36 0 002.15.18c13.5 0 20-18 8.14-18-2.08 0-4.57 1.46-6.28 4.44l-5.91 10.18a6.1 6.1 0 01-3.39-5.4 6 6 0 012.39-4.8l-1.24-2.23a8.64 8.64 0 00-3.9 7.07 8.55 8.55 0 004.78 7.55l-1.14 2c-2.66 4.6-2.19 9.7 3.18 9.7a7.62 7.62 0 004.12-1.2l-1 1.71c-5.15 1.57-8.32 3.65-8.32 6.49 0 3.65 5.58 4.41 8.32-.26l2.92-5c3.94-1.24 7.8-3.94 12-8.75a2.5 2.5 0 00-.24-.36c1.68-2 3.11-3.88 6-7.77l.51.62a1.85 1.85 0 01.22 2.15l-4 7c-1.61 2.81-.48 5.4 2.59 5.4 1.91 0 4-1.25 6-3-.05 1.75 1.14 3 3.31 3 1.53 0 3.43-1 5.25-2.48.19 1.46 1.35 2.48 3.29 2.48s3.79-1.13 5.74-2.79l-1.4 2.42h3.83l5.8-10.1c5.81-7.25 8.4-6.3 6.75-3.5l-4.92 8.57c-1.6 2.81-.48 5.4 2.59 5.4 2 0 4.23-1.39 6.38-3.35-.2 1.9 1 3.35 3.3 3.35 1.53 0 3.43-1 5.26-2.48.18 1.46 1.35 2.48 3.28 2.48 3.14 0 6.75-3.36 9.89-7a3.35 3.35 0 00-1.44-1.42zm-78-14.15c1.13-1.93 2.37-2.77 3.43-2.77 6 0 1.79 12.25-8.14 12.25h-.77zm-8.07 28.59c-.8 1.42-2.08 1.2-2.08.18s.88-2.11 3.8-3.25zm39.72-13.78c-2.3 3.6-4.56 5.32-6.13 5.32-.84 0-1.32-.59-.44-2.08l5.29-9.23c2-3.53 6.09-2.62 4.23.81zm36.72-.22c-2.3 3.75-4.64 5.54-6.24 5.54-.84 0-1.31-.59-.44-2.08l5.29-9.23c2.05-3.53 6.09-2.62 4.23.81zM236.84 331.69l-.26.29c-2.73 3.17-5.4 5.69-7.07 5.69-.84 0-1.32-.58-.44-2.08l5.47-9.59c1.64-2.88.07-5-2-5-1.65 0-3.36.88-5.26 2.85l1.43-2.48h-3.8L218.76 332a3.29 3.29 0 00-.49-.29l-.27.29a8.2 8.2 0 01-5.73 2.81l3.57-6.16c2.3-4 .19-7.73-3.39-7.73-2.92 0-5.18 1.17-7.37 5l-1.86 3.24-1.63 2.78c-.12-.07-.23-.14-.34-.19l-.26.3c-3.14 3.6-5.8 5.94-8.79 7.21l10.4-17.79h-3.8l-6.71 11.67c-2.92 2.7-5.18 4.19-5.91 3.86-.95-.4 0-1.82.47-2.62l7.41-12.91h-3.79l-6.06 10.47a2.79 2.79 0 00-.33-.19l-.25.3c-2.74 3.17-5.4 5.68-7.08 5.68-.84 0-1.32-.58-.44-2.08l5.49-9.65c1.64-2.88.07-4.95-2-4.95-1.64 0-3.36.87-5.26 2.84l1.43-2.48h-3.8l-6.06 10.49a2.36 2.36 0 00-.36-.21l-.26.3c-2.73 3.17-5.4 5.68-7.08 5.68-.84 0-1.31-.58-.44-2.08l6.14-10.71h-2.16a3.93 3.93 0 00-4-3.83c-2 0-4.89 1.6-6.49 4.37l-3.92 6.76a2.33 2.33 0 00-.83-.49l-.26.3c-2.73 3.17-6.09 5.68-9.85 5.68-2.59 0-4.16-2.59-1.9-6.45l1.06-1.86a13.55 13.55 0 002.15.18c4.05 0 8.65-2.07 11.64-7.29a10.5 10.5 0 001.54-5.1c0-3.43-2.23-5.65-5-5.65-2.08 0-4.56 1.46-6.27 4.45l-5.91 10.17a6.11 6.11 0 01-3.4-5.4 6 6 0 012.44-4.77l-1.24-2.23a8.36 8.36 0 00.88 14.62l-1.13 2c-2.66 4.6-1.1 9.7 4.27 9.7a14 14 0 0010-4.37c-.82 2.38.38 4.37 3.06 4.37 1.54 0 3.43-1 5.26-2.48.18 1.46 1.35 2.48 3.28 2.48s3.79-1.13 5.75-2.78l-1.4 2.42h3.83l5.8-10.1c5.8-7.26 8.39-6.31 6.75-3.5l-4.92 8.56c-1.61 2.81-.48 5.4 2.59 5.4 2 0 4.28-1.43 6.46-3.43-.45 2.09.51 3.43 2.4 3.43s3.91-1.53 5.62-3.06l-2.08 3.57c-5.14 1.53-8.35 3.64-8.35 6.49 0 3.64 5.58 4.41 8.31-.26l2.92-5a24 24 0 009.57-6.2c-.52 5.3 6.54 6.51 10.79 1.13h.84a11 11 0 005-1.46l-2.56 4.41h3.84l5.8-10.1c5.8-7.25 8.39-6.31 6.75-3.5l-4.93 8.57c-1.6 2.81-.47 5.4 2.59 5.4s6.75-3.36 9.89-7a3.23 3.23 0 00-1.55-1.34zm-94.44-14.15c1.13-1.93 2.37-2.77 3.43-2.77 1.42 0 2.08 1 2.08 2.34 0 3.53-4.3 9.91-10.22 9.91h-.76zm13.36 14.81c-2.29 3.61-4.56 5.32-6.13 5.32-.84 0-1.31-.58-.44-2.08l5.3-9.22c2-3.54 6.09-2.63 4.23.8zm28.87 13.78c-.8 1.42-2.08 1.2-2.08.18s.91-2.11 3.83-3.24zM210.17 332H210a2.24 2.24 0 00-2.23 2.26 2.45 2.45 0 00.37 1.27v.08c-1.79 3.06-6.13 2.47-3.87-1.46l2.88-5 1.83-3.1c2.66-4.52 6.31-2.73 4 1.21zM324.79 333a2.41 2.41 0 00-1.42-1.31l-.26.29a23 23 0 01-4.56 4.12c1.21-3.61.95-9.15 3.29-14l-2.84-1.53c-1.57 2.15-5 7.11-8.43 11.12h-.05l-.25.29c-2.74 3.18-5.4 5.69-7.08 5.69-.84 0-1.64-.84-1.64-2.55v-1.57c2.66.33 5.47-1.42 7.26-4.52l1-1.75c3.54-6-2.23-8.06-6.09-4.52l5.4-9.37h-3.8l-10.82 18.76a3.59 3.59 0 00-.69-.46l-.26.3c-2.74 3.17-6.24 5.68-8.9 5.68-2.34 0-3.72-1.45-2-4.52l3.9-6.78c2.19-3.75 6.06-3.13 3.79.81l-.54.94h3.2l.55-.94c2-3.5.07-6.13-3-6.13a8 8 0 00-7.12 4.38l-3.73 6.4-.23-.13-.26.29c-2.74 3.17-5.4 5.69-7.08 5.69-.84 0-1.31-.59-.44-2.08l8.1-14.19H276l-6.75 11.78c-2.89 2.62-5.11 4.08-5.84 3.76-.95-.4 0-1.83.48-2.63l7.4-12.91h-3.79l-7.37 12.74a22.59 22.59 0 01-2.45 2c1.2-3.61.94-9.15 3.28-14l-2.96-1.58c-1.56 2.15-10.32 13.75-13.75 17.76a5.29 5.29 0 001.42 1.31c2.15-2.48 9.38-11.77 10.73-13.56-1.5 3.94-.69 11-4.31 11a2.13 2.13 0 01-1.79-1.38L248 337a4.13 4.13 0 004.16 3.06 9.28 9.28 0 001.06-.08h.11a13.18 13.18 0 005.63-2.38 2.29 2.29 0 002.51 2.49c2.08 0 4.42-1.9 6.24-3.65-.36 2 .84 3.65 3.25 3.65s5-1.9 7.47-4.38c0 2.52 2 4.38 5.15 4.38s6.14-1.72 8.78-4l-2.12 3.66h3.84l4.34-7.54v3c0 3.24.62 4.89 3.68 4.89s6.75-3.36 9.89-7h.05c2.15-2.48 4.05-5.14 5.4-6.93-1.5 3.94-.69 11-4.31 11a2.14 2.14 0 01-1.79-1.39l-2.37 1.24a4.13 4.13 0 004.16 3.06 9.59 9.59 0 001.06-.07h.11c3.82-.63 7.7-3.69 10.49-7.01zm-25.2-3l1.1-1.89c4.38-6.09 7.37-4.41 6-2.12l-1.82 3.14c-1.12 1.98-4.44 3.36-5.28.87zM324.65 335.59a2.18 2.18 0 00-2.19 2.23 2.14 2.14 0 002.19 2.18 2.17 2.17 0 002.22-2.18 2.21 2.21 0 00-2.22-2.23zM324.83 334.1h3.83l11.89-20.71h-3.79l-11.93 20.71zM80.45 277.52a2.29 2.29 0 01-.17.88 2.5 2.5 0 01-.5.8 2.91 2.91 0 01-.83.57 2.64 2.64 0 01-1.1.22 3.47 3.47 0 01-1.31-.25 2.92 2.92 0 01-1.06-.73 3.13 3.13 0 01-.58-1.01 4.2 4.2 0 01-.2-1.29 5.91 5.91 0 01.46-2.36 6 6 0 011.3-1.93 5.33 5.33 0 01.85-.69 8.33 8.33 0 01.89-.55l.73-.35a4.06 4.06 0 00.37-.17l1.36 2c-.25.09-.53.21-.83.35a4.78 4.78 0 00-.86.54 3.07 3.07 0 00-.68.76 2.3 2.3 0 00-.31 1 2.77 2.77 0 011.73.57 2 2 0 01.74 1.64zm7.87 0a2.29 2.29 0 01-.17.88 2.35 2.35 0 01-.5.79 2.63 2.63 0 01-.83.58 2.8 2.8 0 01-1.1.22 3.67 3.67 0 01-1.31-.25 2.92 2.92 0 01-1.06-.73 3.13 3.13 0 01-.58-1.05 4.2 4.2 0 01-.2-1.29 5.91 5.91 0 01.46-2.36 6 6 0 011.3-1.93 5.33 5.33 0 01.85-.69 6.3 6.3 0 01.9-.54l.72-.36.38-.17 1.35 2c-.25.09-.52.21-.83.35a5.16 5.16 0 00-.86.54 3.07 3.07 0 00-.68.76 2.17 2.17 0 00-.3 1 2.74 2.74 0 011.72.57 2 2 0 01.74 1.68zM353.63 336.45a2.26 2.26 0 01.17-.88 2.4 2.4 0 01.5-.8 2.72 2.72 0 01.83-.57 2.64 2.64 0 011.1-.22 3.47 3.47 0 011.31.25 2.92 2.92 0 011.06.73 3.13 3.13 0 01.58 1.05 4.13 4.13 0 01.2 1.28 5.93 5.93 0 01-.46 2.37 6.08 6.08 0 01-1.3 1.93 5.33 5.33 0 01-.85.69 6.83 6.83 0 01-.89.54l-.73.36-.38.17-1.35-2c.25-.09.52-.21.83-.35a5.16 5.16 0 00.86-.54 2.94 2.94 0 00.68-.77 2.1 2.1 0 00.3-1 2.69 2.69 0 01-1.72-.58 2 2 0 01-.74-1.66zm-7.87 0a2.26 2.26 0 01.17-.88 2.4 2.4 0 01.5-.8 2.72 2.72 0 01.83-.57 2.64 2.64 0 011.1-.22 3.47 3.47 0 011.31.25 2.92 2.92 0 011.06.73 3.13 3.13 0 01.58 1.05 4.13 4.13 0 01.2 1.28 5.93 5.93 0 01-.46 2.37 6.08 6.08 0 01-1.3 1.93 5.33 5.33 0 01-.85.69 6.83 6.83 0 01-.89.54c-.28.15-.53.27-.73.36a3 3 0 00-.37.17l-1.36-2c.25-.09.53-.21.83-.35a4.78 4.78 0 00.86-.54 2.94 2.94 0 00.68-.77 2.22 2.22 0 00.31-1 2.72 2.72 0 01-1.73-.58 1.94 1.94 0 01-.74-1.66z" fill="#fff"/>
</svg>
